<svg xmlns="http://www.w3.org/2000/svg" viewBox="0 0 24 24">
  <path d="M12 0a12 12 0 0112 12 12 12 0 01-12 12C6.48 24 1.86 20.304.432 15.276l4.596 1.896a3.411 3.411 0 003.336 2.724A3.4 3.4 0 0011.76 16.5v-.156l4.08-2.916h.096a4.527 4.527 0 004.524-4.524 4.527 4.527 0 00-4.524-4.524c-2.496 0-4.536 2.028-4.536 4.524v.06l-2.844 4.152-.192-.012c-.708 0-1.368.216-1.908.588L0 11.04C.516 4.86 5.676 0 12 0M7.536 18.204a1.88 1.88 0 002.46-1.008A1.88 1.88 0 009 14.748l-1.536-.636a2.528 2.528 0 011.872.036 2.44 2.44 0 011.38 1.38c.264.624.264 1.32 0 1.944-.516 1.296-2.04 1.92-3.336 1.38a2.512 2.512 0 01-1.308-1.248l1.464.6m11.424-9.3a3.027 3.027 0 01-3.024 3.024 3.024 3.024 0 01-3.012-3.024 3 3 0 013.012-3.012 3.024 3.024 0 013.024 3.012m-5.28 0a2.266 2.266 0 002.268 2.268 2.264 2.264 0 002.256-2.268 2.264 2.264 0 00-2.256-2.268 2.266 2.266 0 00-2.268 2.268z" fill="lightgrey"/>
</svg>