<svg xmlns="http://www.w3.org/2000/svg" viewBox="0 0 647.2 751">
  <path d="M293.464 227.73v-72.415c0-11.528-5.303-16.862-16.37-16.862h-18V244.6h18c11.053 0 16.37-5.35 16.37-16.87zm-48.62 281.336l-.36-1.082-.47-1.196-.48-1.076-.36-1.083-.47-1.075-.478-1.197-.36-1.083-.48-1.076-.47-1.074-.36-1.083-.48-1.196-.35-1.076-.48-1.082-.48-1.077-.357-1.076-.472-1.2-.478-1.077-.36-1.075-.48-1.082-.47-1.197-.36-1.083-.48-1.076-.47 1.076-.357 1.083-.48 1.197-.48 1.082-.352 1.075-.478 1.077-.48 1.2-.47 1.076-.36 1.077-.478 1.082-.48 1.076-.352 1.196-.477 1.083-.48 1.074-.357 1.076-.472 1.083-.48 1.197-.478 1.075-.35 1.083-.48 1.076-.48 1.196-.36 1.082-.47 1.077h20.1zM588.797-.002l.023.002H59.178C16.25 0 .405 15.843.405 58.792v518.25c0 4.86.196 9.373.627 13.558.978 9.374 1.16 18.46 9.867 28.8.854 1.014 9.754 7.638 9.754 7.638 4.787 2.347 8.058 4.077 13.458 6.25l260.803 109.268c13.54 6.206 19.2 8.627 29.034 8.43l.04.001h.04c9.834.193 15.494-2.227 29.035-8.432L613.865 633.3c5.4-2.174 8.67-3.903 13.46-6.25 0 0 8.9-6.624 9.752-7.638 8.72-10.343 8.903-19.427 9.867-28.8.43-4.183.627-8.697.627-13.558V58.8C647.57 15.84 631.726-.003 588.798-.003zM357.025 99.786h43.807v287.96h-43.807V99.786zm-19.07 391.377l.6.958.598-.958.598-1.066.7-.956.597-1.076.592-.95.598-1.076.7-.957.598-1.076.6-.956.6-.95.718-1.075.6-.957.6-1.066.596-.957.7-1.076.597-.955.6-1.07.6-.956.6-.956.7-1.067.598-.957.598-1.074.592-.958.716-1.066.592-.956.596-.956.6-1.077.7-.934.6-1.077.6-.956.6-1.076.717-.95.6-1.075.598-.957h24.393v87.04l-1.203.001H361.17V493.47l-.596.955-.7 1.085-.6.956-.7.957-.598 1.074-.72.958-.6.956-.6 1.082-.7.956-.6.956-.716.958-.6 1.082-.718.956-.6.956-.6 1.076-.717.963-.6.957-.718 1.075-.6.957-.718.956-.6 1.083-.6.957-.716.956-.6 1.076-.718.963-.6.956-.717.957-.6 1.075-.6.962-.716.958-.6 1.076-.718.956-.598.955-.7 1.085-.598.956h-.472l-.717-1.076-.6-.965-.7-1.075-.598-.956-.7-1.075-.598-.964-.7-1.076-.6-.957-.717-1.075-.6-.956-.718-1.084-.6-.956-.718-1.076-.6-.956-.7-1.082-.6-.956-.7-1.076-.718-.956-.598-1.083-.7-.956-.598-1.076-.7-.956-.597-1.084-.7-.956-.598-1.076-.717-.955-.6-1.076-.718-.965-.6-1.074-.717-.957-.598-1.076-.7-.955-.6-1.084-.7-.956v51.202H293.07V457.9h24.4l.6.957.598 1.075.7.95.6 1.076.597.956.6 1.077.598.934.712 1.077.596.956.6.956.6 1.066.597.958.7 1.074.598.957.597 1.067.6.956.718.956.6 1.07.6.955.598 1.076.592.957.717 1.066.598.957.6 1.075.6.95.6.956.717 1.076.598.957.6 1.076.598.95.6 1.076.72.956.595 1.066zM215.28 99.8h68.77c35.602 0 53.2 17.686 53.2 53.476V229.8c0 35.784-17.6 53.47-53.2 53.47h-24.97v104.485h-43.8V99.8zm-119.395-.015h97.432v39.9h-53.632v81.45h51.58v39.897h-51.58v86.8h54.448v39.9H95.886V99.786zm82.887 433.318l-.814.718-.956.717-.83.6-.956.718-.95.597-.95.718-.956.597-.95.6-1.076.596-1.07.6-1.07.597-1.075.47-1.07.6-1.2.478-1.066.48-1.196.478-1.067.48-3.213 1.067-1.2.357-1.067.36-1.196.24-1.07.24-2.395.48-1.2.134-1.307.133-1.2.134-1.307.133-1.196.134-1.307.133h-5.12l-1.2-.133-1.307-.134-3.574-.36-2.377-.48-1.067-.24-1.195-.24-1.07-.36-1.2-.24-1.076-.36-1.07-.478-1.07-.36-1.2-.48-1.076-.478-1.07-.478-1.066-.48-1.078-.598-.933-.592-1.07-.598-1.907-1.194-2.856-2.153-.836-.718-.83-.718-.837-.837-.83-.716-.837-.838-.83-.837-.717-.836-.7-.956-.717-.838-.597-.956-.7-.957-.596-.955-.592-.957-.597-1.076-.598-.956-.47-1.076-.956-2.15-.472-1.075-.36-.956-.48-1.077-.24-1.076-.352-1.074-.24-1.195-.36-1.077-.24-1.194-.133-1.076-.24-1.196-.117-1.074-.133-1.196-.112-1.196-.133-1.194v-3.947l.133-1.314v-1.194l.112-1.196.133-1.314.24-1.2.133-1.196.24-1.076.36-1.194.24-1.196.35-1.076.36-1.194.36-1.076.48-1.196.472-1.074.956-2.152.47-1.076.597-1.076.598-.956.592-.957.596-.956.6-.956.7-.956.718-.956.7-.956.717-.84.83-.836.717-.838 1.667-1.675.83-.716.956-.837.83-.718.95-.717.956-.598.95-.718.957-.597.934-.598 1.07-.6 1.076-.597 1.066-.598 1.07-.48 1.075-.478 1.2-.6.95-.357 1.2-.36 1.077-.478 1.067-.24 1.067-.36 1.194-.24 1.07-.36 1.2-.24 1.2-.133 1.195-.24 1.2-.133 3.574-.36h5.1l2.624.24h1.2l1.2.133 1.307.24 1.076.134 2.377.48 2.143.478 1.07.24 1.076.36 1.067.24.95.36 1.076.36 1.07.478 1.066.48 1.076.48 1.07.598 1.067.48.957.598 1.067.598.95.597 1.076.6.95.716.95.6.956.718.95.718.956.836.95.717-.717.958-.83.836-.717.956-.83.956-.718.957-.7.836-.837.956-.7.956-.717.84-.83.956-.716.956-.83.956-.717.838-.7.956-.836.956-.712.956-.836.837-.7.956-.956-.717-.95-.837-.956-.6-.95-.718-2.856-1.792-1.067-.6-.956-.478-.95-.48-.956-.36-2.138-.718-1.076-.24-2.374-.48-1.2-.133-1.307-.134-1.315-.134h-2.496l-1.2.134-1.076.134-1.2.24-1.07.24-1.076.357-1.067.36-2.14.956-.956.597-.934.6-.957.6-.83.716-.837.718-.83.718-.717.836-.83.837-.717.956-.592.837-.597.956-.6 1.076-.6.956-.477 1.076-.36 1.076-.472 1.076-.36 1.194-.24 1.2-.24 1.075-.24 1.315-.133 1.195-.112 1.194v2.737l.112 1.194.267 2.272.717 3.227.36 1.076.352.956.48 1.194.478 1.078.6 1.076 1.194 1.912.7.957.717.836.83.837.72.837.827.717.958.718.95.717.934.598.956.598 2.137.96 1.075.477 2.377.718 2.384.48 2.493.268h2.733l2.624-.24 1.2-.134 2.396-.48 1.2-.357 1.067-.24 1.07-.478.956-.48 1.066-.48.836-.478.95-.6V511.73h-17.4v-17.445h39.273v38.818zm9.294 10.753l.48-1.076.477-1.076.472-1.194.36-1.07.48-1.075.477-1.076.47-1.076.48-1.075.48-1.196.47-1.076.48-1.075.357-1.075.48-1.076.47-1.076.48-1.195.478-1.075.472-1.078.48-1.074.478-1.076.36-1.076.47-1.196.958-2.15.47-1.076.957-2.152.47-1.195.36-1.075.48-1.076.477-1.076.472-1.075.478-1.076.477-1.195.472-1.076.477-1.075.36-1.076.48-1.075.47-1.076.48-1.195.48-1.076.47-1.076.956-2.15.36-1.078.472-1.066.477-1.196.478-1.074.472-1.077.956-2.15.47-1.076.36-1.195.48-1.075.477-1.076.472-1.076.48-1.076.478-1.075.472-1.196.478-1.075.36-1.076.478-1.075.472-1.076.477-1.076.48-1.194.47-1.076.958-2.152.35-1.075.48-1.077.48-1.194.48-1.076.47-1.076.48-1.076.478-1.076.47-1.074.36-1.196.956-2.152.47-1.075h22.017l.956 2.15.472 1.076.477 1.196.36 1.074.47 1.076.48 1.076.956 2.152.47 1.194.48 1.077.48 1.075.35 1.076.957 2.152.48 1.194.47 1.076.956 2.15.47 1.076.36 1.075.478 1.196.472 1.075.48 1.076.956 2.152.47 1.075.477 1.195.36 1.076.47 1.075 1.435 3.227.47 1.196.48 1.066.477 1.077.352 1.075.956 2.15.472 1.076.478 1.196.957 2.15.47 1.076.36 1.076.477 1.076.472 1.194 1.433 3.228.472 1.075.48 1.075.357 1.196.472 1.076.956 2.15.47 1.076.48 1.075.48 1.195.48 1.076.35 1.076.958 2.152.47 1.076.478 1.194.48 1.076.478 1.076.47 1.076.36 1.074.48 1.076.47 1.196.955 2.15.472 1.076.477 1.075.48 1.07.36 1.194.47 1.076.48 1.076.478 1.077-1.234.003H258.9l-.472-1.077-.36-1.076-.478-1.076-.48-1.194-.352-1.07-.956-2.15-.352-1.076-.477-1.075-.48-1.076-.357-1.076-.472-1.195-.48-1.075-.36-1.076-.48-1.076H218.2l-.47 1.076-.36 1.076-.48 1.075-.5 1.2-.352 1.076-.477 1.076-.48 1.075-.36 1.076-.47 1.076-.48 1.075-.36 1.07-.472 1.194-.478 1.076-.36 1.076-.48 1.077h-24.034l.46-1.08zm133.9 146.454l-122.76-42.207h250.747L321.978 690.3zm149.108-145.365l-1.202-.012H401.7V457.92h68.784v19.727h-46.06v14.225h41.42v18.533h-41.418v14.808h46.668v19.733zm-47.107-208.2V150.8c0-35.8 17.608-53.476 53.218-53.476h21.294c35.608 0 52.802 17.278 52.802 53.062v58.83h-42.98v-56.362c0-11.518-5.3-16.862-16.378-16.862h-7.37c-11.46 0-16.784 5.344-16.784 16.862v181.82c0 11.52 5.324 16.863 16.784 16.863h8.192c11.048 0 16.37-5.343 16.37-16.863V269.7l42.97-.001v67.047c0 35.792-17.585 53.476-53.202 53.476h-21.7c-35.6 0-53.218-17.684-53.218-53.476zm129.378 183.033l-.013 1.265-.133 1.196-.134 1.313-.24 1.196-.357 1.194-.23 1.076-.36 1.196-.477 1.076-.48.957-.47 1.074-1.194 1.914-.7.956-.6.956-.7.836-.837.837-.7.718-.955.837-.83.718-.956.717-.95.6-.95.717-1.075.598-1.07.48-1.066.597-2.395.96-1.2.357-1.2.36-1.076.357-1.2.24-2.137.478-1.196.24-1.2.134-1.067.133-1.195.134-2.496.267h-5l-1.2-.134H514l-3.7-.373-1.2-.24-1.2-.133-1.195-.24-3.562-.72-1.195-.357-1.07-.24-2.376-.72-1.074-.48-1.2-.36-1.07-.357-1.2-.48-1.075-.48-1.07-.48-1.07-.6-1.074-.48-1.07-.6-.95-.597-1.075-.6-.95-.598-.957-.598-1.898-1.435-.956-.717-.95-.718-.846-.716-.95-.837.717-.956.83-.837.718-.957.83-.956.717-.836.7-.956.837-.958.7-.836.838-.956.7-.837.837-.956.7-.958.718-.836.83-.956.718-.957.83-.836.718-.956.95.718 1.07.717.956.718 1.07.717.956.598 1.07.716.934.6 1.077.477.934.6 1.07.48 1.076.478 1.066.48 1.07.36 1.075.478 2.377.718 1.067.36 3.573.718 1.307.133 1.194.24h1.2l1.307.134h2.616l1.307-.134 1.196-.24 2.136-.48.956-.36.83-.478.956-.717.7-.838.48-.957.36-1.074.117-1.196v-.24L530 518.9l-.48-1.196-.6-.836-.83-.717-.958-.718-.95-.478-1.066-.48-1.196-.48-1.427-.596-.83-.24-.934-.24-1.076-.36-1.07-.24-1.2-.36-1.195-.24-1.307-.36-1.2-.24-1.307-.36-1.2-.24-1.196-.36-1.2-.24-1.2-.36-1.076-.357-1.2-.24-3.213-1.077-1.307-.48-3.573-1.436-1.067-.598-1.2-.598-.955-.597-1.07-.598-.953-.72-.956-.597-.83-.72-.836-.836-.83-.837-.717-.838-.7-.836-.6-.836-.6-.957-.598-1.075-.48-.83-.36-.957-.35-1.076-.36-.956-.24-1.196-.24-1.076-.133-1.194-.268-2.5v-2.75l.4-3.467.48-2.15.36-1.077.24-1.074.47-1.076.957-2.15.592-1.077.597-1.074.7-.958.72-.956.83-.956.836-.836.83-.957.956-.838.83-.597.956-.718.95-.717.934-.598 1.076-.598 1.07-.48 1.066-.598 1.076-.478 1.2-.36 1.2-.478 1.076-.36.95-.24 2.134-.477 1.2-.24 1.07-.24 4.76-.478h5.12l2.614.267h1.2l1.314.134 1.2.24 1.307.133 1.2.24 1.076.24 2.373.48 1.07.24 1.195.36 1.07.36 1.07.24 1.194.478 1.07.36 2.137.958 1.194.48 1.07.598.95.48 1.076.598 1.07.598.95.6 1.075.718.95.596 2.854 2.153-.7.958-.598.956-.7.956-.717.957-.7 1.074-.6.956-.718.958-.7.956-.597.956-.712.957-.716.956-.6.956-.7 1.076-.72.956-.7.956-.597.956-.7.956-.956-.716-1.066-.6-.95-.598-.956-.717-1.066-.478-.957-.6-1.067-.48-.95-.478-1.076-.48-.95-.478-1.066-.36-.956-.48-1.3-.357-1.2-.36-1.2-.357-3.57-.72-2.396-.267-1.066-.134h-2.616l-1.307.24-1.196.24-1.066.24-.95.48-.838.478-1.07.957-.717 1.076-.47 1.076-.133 1.194v.24l.133 1.554.6 1.314.48.718.83.837 1.075.598.95.598 1.2.48 1.315.48 1.427.477.95.24.95.36 1.076.24 1.066.36 1.2.24 2.624.716 1.307.36 1.307.24 1.2.36 1.307.36 1.196.24 2.377.718 1.066.36 1.196.36 2.138.718 1.314.47 1.2.6 1.2.478 1.2.598 2.146 1.197.934.598.956.717.95.598.95.837.956.836.83.958.836.836.7.957.718 1.075.6.956.6 1.077.478.956.36 1.074.352 1.076.24 1.076.478 2.393.133 1.194.134 1.314v2.876z" fill="lightgrey"/>
</svg>