<svg xmlns="http://www.w3.org/2000/svg" viewBox="5.00014 117.952 990 764.1">
  <path d="M986.195 702.762c-19.338 24.398-66.718 41.803-66.718 41.803l-352.455 126.6V777.8l259.383-92.42c29.436-10.546 33.955-25.455 10.029-33.28-23.881-7.848-67.122-5.6-96.58 4.992l-172.832 60.871v-96.895l9.962-3.373s49.942-17.675 120.168-25.455c70.226-7.735 156.215 1.057 223.72 26.646 76.072 24.039 84.64 59.478 65.323 83.876zM600.572 543.781V305.019c0-28.041-5.172-53.855-31.481-61.164-20.147-6.454-32.65 12.255-32.65 40.273v597.919l-161.251-51.18V117.952c68.562 12.728 168.447 42.814 222.145 60.917 136.562 46.884 182.861 105.237 182.861 236.716-.001 128.151-79.108 176.723-179.624 128.196zM79.31 768.041c-78.096-21.992-91.093-67.82-55.497-94.22 32.898-24.375 88.845-42.725 88.845-42.725l231.208-82.211v93.725l-166.378 59.544c-29.39 10.547-33.91 25.478-10.029 33.303 23.903 7.826 67.167 5.6 96.603-4.969l79.805-28.963v83.853c-5.06.899-10.703 1.799-15.921 2.676-79.829 13.042-164.851 7.6-248.636-20.013z" fill="lightgrey"/>
</svg>