<svg fill="lightgrey" xmlns="http://www.w3.org/2000/svg"  viewBox="0 0 50 50" width="250px" height="250px"><path d="M 9.5039062 4 C 7.4455737 4 5.774939 4.8078806 4.6875 6.03125 C 3.600061 7.2546194 3.078125 8.8473093 3.078125 10.425781 C 3.078125 12.004253 3.600061 13.59499 4.6875 14.818359 C 4.8921557 15.048597 5.1244755 15.258842 5.3691406 15.457031 C 5.8485647 22.646688 8.9207334 38.059266 25.363281 45.753906 C 25.366881 45.755606 25.369347 45.758066 25.373047 45.759766 C 25.404347 45.776056 25.49914 45.825156 25.691406 45.912109 L 26.119141 46.105469 L 26.541016 45.898438 C 26.684812 45.828457 26.837891 45.755859 26.837891 45.755859 C 48.754965 35.502186 46.875 11.521484 46.875 11.521484 L 46.835938 11.033203 L 46.427734 10.765625 C 41.08704 7.2590883 34.026258 6.1037534 26.416016 6.0429688 L 26.412109 6.0429688 L 25.792969 6.0429688 L 25.789062 6.0429688 C 22.002326 6.0736229 18.366756 6.3922342 14.998047 7.1191406 C 13.870871 5.2557287 11.831165 4 9.5039062 4 z M 9.5039062 6 C 11.959613 6 13.927734 7.970076 13.927734 10.425781 C 13.927734 12.881487 11.959613 14.849609 9.5039062 14.849609 C 7.9455738 14.849609 6.9025342 14.30124 6.1816406 13.490234 C 5.4607471 12.679229 5.078125 11.559809 5.078125 10.425781 C 5.078125 9.2917536 5.4607471 8.1703806 6.1816406 7.359375 C 6.9025342 6.5483694 7.9455738 6 9.5039062 6 z M 25.804688 8.0410156 L 25.796875 8.0429688 L 26.408203 8.0429688 L 26.400391 8.0410156 C 33.602451 8.0985396 40.087107 9.2384414 44.878906 12.207031 C 44.92875 12.950641 45.202475 18.414581 43.058594 24.880859 C 42.160844 23.25014 40.102915 21.607291 37.28125 21.056641 C 36.29125 20.891641 34.970516 21.139828 34.228516 21.798828 L 33.568359 21.634766 L 33.568359 21.552734 C 33.568359 21.552734 34.805781 20.7275 35.300781 20.5625 C 35.300781 20.5625 35.547891 20.478484 35.712891 20.396484 C 35.712891 20.231484 35.629703 20.066328 34.970703 19.736328 C 34.310703 19.406328 33.404297 19.490234 33.404297 19.490234 L 34.064453 19.078125 L 34.064453 18.996094 L 32.662109 17.59375 L 32.662109 17.347656 L 32.085938 16.769531 C 32.085938 16.769531 32.167922 16.522422 31.919922 16.357422 C 31.672922 16.110422 31.42575 15.946281 31.34375 15.863281 C 31.26175 15.780281 31.013672 15.697266 31.013672 15.697266 C 31.013672 15.697266 31.177734 15.368125 31.177734 15.203125 C 31.177734 15.203125 31.178703 15.121094 31.095703 15.121094 C 31.013703 15.121094 30.187453 14.543937 29.939453 14.460938 C 29.692453 14.377937 28.949187 14.214844 28.867188 14.214844 C 28.784188 14.214844 28.703125 14.296906 28.703125 14.378906 C 28.703125 14.461906 28.619141 14.873047 28.619141 14.873047 L 29.279297 15.121094 L 29.197266 15.367188 L 28.785156 15.285156 C 28.538156 15.120156 27.300469 14.625938 25.980469 14.460938 C 24.660469 14.295938 23.174766 14.214844 23.009766 14.214844 C 22.844766 14.214844 22.680469 14.297922 21.855469 14.544922 C 21.030469 14.791922 20.453047 15.039062 20.123047 15.039062 C 19.793047 15.122063 18.638672 15.121094 18.638672 15.121094 C 18.638672 15.121094 18.637578 15.039969 18.142578 14.792969 C 17.647578 14.545969 16.492078 13.966766 16.080078 13.884766 C 15.998078 13.884766 15.998047 13.96875 15.998047 13.96875 C 15.998047 13.96875 15.751953 13.968859 15.751953 14.380859 C 15.668953 14.298859 15.505859 14.298828 15.505859 14.298828 L 15.339844 14.710938 C 14.97736 14.637913 14.704286 14.564345 14.46875 14.492188 C 15.379208 13.383124 15.927734 11.966068 15.927734 10.425781 C 15.927734 9.9373911 15.867901 9.4636534 15.763672 9.0058594 C 18.863294 8.368221 22.245416 8.0698284 25.804688 8.0410156 z M 15.914062 14.210938 C 15.914062 14.210938 17.730578 14.787188 18.142578 15.117188 C 17.895578 15.117188 17.400391 15.199219 17.400391 15.199219 C 17.400391 15.199219 17.152031 14.952109 15.832031 14.787109 C 15.832031 14.457109 15.914062 14.210938 15.914062 14.210938 z M 22.431641 14.376953 C 22.431641 14.376953 23.587219 14.706172 24.824219 15.201172 C 24.824219 15.201172 23.422844 16.025391 23.339844 16.025391 C 23.257844 16.025391 23.009656 16.190391 22.597656 16.025391 C 22.102656 15.860391 20.947234 15.449219 20.865234 15.449219 C 20.782234 15.449219 20.205078 15.119141 20.205078 15.119141 C 20.205078 15.119141 22.349641 14.376953 22.431641 14.376953 z M 14.513672 14.705078 C 14.678672 14.787078 14.925859 14.871125 15.255859 14.953125 L 15.255859 15.035156 L 15.337891 14.787109 L 16.904297 15.199219 C 16.904297 15.199219 16.551375 15.249484 16.359375 15.271484 L 16.410156 15.283203 C 16.410156 15.283203 15.172812 15.529297 15.007812 15.529297 C 15.007812 15.611297 14.925781 15.612313 14.925781 15.695312 L 14.841797 15.695312 L 14.841797 16.025391 L 14.759766 16.107422 L 14.759766 16.189453 C 14.924766 16.272453 15.420937 16.602547 15.585938 16.685547 L 15.75 16.685547 L 15.832031 16.767578 C 15.832031 16.767578 15.501922 16.684609 15.419922 16.849609 C 15.337922 17.014609 15.255859 17.591797 15.255859 17.591797 C 15.255859 17.591797 15.255 17.839844 15.75 17.839844 L 15.75 17.921875 L 15.667969 18.003906 L 15.501953 18.003906 L 15.337891 17.839844 L 15.253906 17.675781 L 14.511719 17.263672 L 14.511719 17.59375 L 14.595703 17.59375 L 14.595703 18.087891 L 14.511719 18.087891 L 14.511719 17.757812 L 14.429688 18.335938 L 13.935547 18.335938 L 14.017578 17.427734 C 14.017578 17.427734 13.771516 17.346641 13.853516 17.181641 C 13.853516 17.016641 13.935547 15.861328 13.935547 15.861328 C 13.935547 15.861328 14.101672 15.200078 14.513672 14.705078 z M 25.484375 15.365234 C 25.649375 15.365234 26.475813 15.44925 27.382812 15.53125 C 28.372812 15.69625 28.537141 15.696328 28.619141 15.861328 C 28.619141 15.861328 28.86625 16.685625 29.03125 17.015625 C 29.19625 17.427625 29.277312 17.757812 29.195312 17.757812 L 27.050781 17.757812 C 26.225781 17.840812 24.90625 17.923828 24.90625 17.923828 C 24.90625 17.923828 24.659172 17.757812 24.576172 17.757812 L 23.916016 16.933594 C 23.916016 16.933594 23.669953 16.603484 23.751953 16.521484 C 23.834953 16.356484 23.916125 16.273391 24.328125 16.025391 C 24.740125 15.777391 25.234375 15.449219 25.234375 15.449219 C 25.234375 15.449219 25.319375 15.365234 25.484375 15.365234 z M 13.394531 15.521484 L 13.689453 15.699219 L 13.607422 16.689453 L 13.525391 16.771484 L 13.525391 16.935547 L 13.607422 17.019531 L 13.525391 17.431641 L 13.443359 17.595703 L 13.525391 17.595703 L 13.525391 17.679688 L 13.607422 17.679688 L 13.607422 17.761719 L 13.03125 17.761719 L 13.113281 16.853516 C 13.113281 16.853516 12.947266 16.854422 12.947266 16.607422 C 12.947266 16.500197 12.977407 16.132914 13.001953 15.802734 C 13.136793 15.71457 13.266919 15.619238 13.394531 15.521484 z M 12.626953 16.03125 L 12.701172 16.03125 C 12.701172 16.03125 12.700234 16.3605 12.865234 16.9375 C 12.782234 17.0205 12.536172 17.762891 12.701172 18.587891 C 12.948172 19.412891 13.855734 20.320391 14.927734 20.650391 C 15.999734 20.980391 16.990234 20.154297 16.990234 20.154297 L 17.320312 20.566406 L 18.144531 20.732422 C 18.144531 20.732422 17.649531 21.968047 18.144531 23.123047 C 18.639531 24.278047 20.28925 25.103516 21.03125 25.103516 C 21.77325 25.103516 22.764766 24.526281 23.259766 24.113281 C 23.754766 23.701281 24.165047 22.876875 24.248047 22.546875 C 24.990047 23.123875 25.816563 23.372969 26.476562 23.042969 L 26.806641 23.125 L 28.867188 24.279297 L 30.517578 24.857422 C 30.517578 24.857422 30.517687 25.764766 30.929688 26.259766 C 31.341687 26.754766 32.414141 27.248047 32.744141 27.248047 C 33.074141 27.248047 33.900578 27.249766 34.642578 26.259766 L 34.642578 26.175781 C 35.879578 27.660781 37.61175 28.238281 39.34375 28.238281 C 40.27675 28.238281 40.983234 28.616953 41.240234 29.251953 C 41.255034 29.239273 41.26658 29.229347 41.28125 29.216797 C 39.52346 32.769616 36.924303 36.371342 33.099609 39.488281 C 32.150753 34.874757 23.546156 28.508905 14.595703 27.080078 C 12.575689 26.743531 10.866615 26.333974 9.5117188 25.683594 C 8.2804146 22.25961 7.7108465 19.045632 7.4648438 16.556641 C 8.0902065 16.743493 8.7715892 16.849609 9.5039062 16.849609 C 10.636929 16.849609 11.700813 16.550345 12.626953 16.03125 z M 20.947266 16.109375 C 20.947266 16.109375 21.003974 16.118231 21.033203 16.191406 C 21.045203 16.195406 21.277344 16.278531 21.277344 16.519531 C 21.277344 16.684531 21.19525 16.849609 21.03125 16.849609 C 20.86525 16.767609 20.782203 16.767578 20.783203 16.767578 L 20.617188 16.851562 L 20.535156 16.851562 L 20.617188 16.273438 L 20.777344 16.220703 C 20.831344 16.160703 20.901266 16.109375 20.947266 16.109375 z M 20.777344 16.220703 C 20.734344 16.267703 20.699219 16.318469 20.699219 16.355469 C 20.699219 16.520469 20.700203 16.602578 20.783203 16.767578 C 20.783203 16.767578 21.029297 16.7675 21.029297 16.4375 C 21.061043 16.309524 21.050932 16.241312 21.033203 16.193359 L 21.029297 16.191406 L 20.865234 16.191406 L 20.777344 16.220703 z M 21.9375 16.4375 C 21.9375 16.4375 23.257031 16.768703 24.082031 17.345703 C 22.845031 17.098703 21.9375 17.097656 21.9375 17.097656 L 21.9375 16.4375 z M 29.691406 16.603516 C 29.691406 16.603516 30.763828 16.850906 31.423828 18.253906 L 29.773438 17.675781 L 29.279297 16.769531 L 29.691406 16.603516 z M 19.361328 16.986328 C 19.423203 16.975953 19.547422 16.976078 19.794922 17.017578 C 20.289922 17.100578 21.195359 17.182656 21.443359 17.347656 C 21.691359 17.512656 21.855469 17.677734 21.855469 17.677734 L 22.021484 18.007812 C 22.186484 18.254812 22.267578 18.337891 22.267578 18.337891 C 22.267578 18.337891 22.432687 18.503937 22.679688 18.585938 C 22.926687 18.585938 23.339844 18.667969 23.339844 18.667969 C 23.339844 18.667969 24.906406 20.152734 25.566406 21.802734 L 26.392578 22.380859 L 24.576172 21.800781 C 24.576172 21.800781 24.824969 20.480234 23.917969 19.490234 C 22.927969 18.500234 21.690266 18.335938 20.947266 18.335938 C 20.205266 18.418937 19.132734 19.159297 18.802734 19.654297 C 18.472734 19.654297 17.646484 19.572266 17.646484 19.572266 L 17.482422 19.902344 L 17.400391 19.984375 L 17.318359 19.984375 L 16.822266 20.150391 C 16.822266 20.150391 16.740156 20.232406 16.410156 20.066406 C 16.327156 19.984406 16.245078 19.985344 16.080078 19.902344 C 15.915078 19.985344 15.503828 19.985312 15.173828 19.820312 C 14.761828 19.655313 14.596672 19.325156 14.513672 19.160156 L 14.431641 19.160156 L 14.431641 18.5 L 15.587891 19.40625 L 15.669922 19.40625 L 15.998047 19.242188 C 15.998047 19.242188 16.080078 19.158172 16.080078 19.076172 C 16.080078 18.994172 16.164062 18.830078 16.164062 18.830078 L 16.410156 18.582031 C 16.327156 18.417031 15.915984 17.757781 15.833984 17.675781 L 15.998047 17.015625 C 15.998047 17.015625 16.74125 17.923906 16.90625 18.253906 L 17.398438 18.089844 C 17.447437 17.772844 17.630453 17.467703 17.814453 17.345703 C 18.061453 17.180703 18.308594 17.511719 18.308594 17.511719 C 18.308594 17.511719 18.062453 17.26375 17.814453 17.59375 C 17.484453 18.00575 17.402453 18.665078 17.814453 18.830078 C 17.567453 18.830078 17.484344 18.831922 17.402344 18.419922 C 17.382344 18.320922 17.383484 18.216281 17.396484 18.113281 C 17.373484 18.231281 17.276438 18.840063 17.648438 18.914062 L 18.060547 18.996094 L 18.226562 18.996094 C 18.226562 18.996094 18.721719 18.750937 18.886719 18.585938 C 19.051719 18.338938 19.051719 18.007766 18.886719 17.759766 C 19.133719 17.677766 20.206328 17.512766 21.361328 17.759766 C 21.279328 17.677766 21.195313 17.513672 21.195312 17.513672 C 21.112313 17.431672 20.700828 17.347578 19.298828 17.017578 C 19.298828 17.017578 19.299453 16.996703 19.361328 16.986328 z M 15.501953 18.005859 L 15.501953 18.664062 L 15.337891 18.746094 L 15.337891 18.087891 L 15.501953 18.005859 z M 26.701172 18.253906 C 27.752922 18.253906 29.196672 18.336016 30.763672 18.666016 C 28.536672 18.583016 26.804469 18.913281 25.980469 19.738281 C 25.980469 19.738281 25.485234 18.912938 24.990234 18.335938 C 24.990234 18.335938 25.649422 18.253906 26.701172 18.253906 z M 23.753906 18.748047 C 23.752906 18.748047 24.825422 18.830375 25.732422 19.984375 L 25.236328 20.066406 L 24.990234 19.984375 C 24.990234 19.984375 24.248906 19.078047 23.753906 18.748047 z M 32.744141 18.996094 L 33.404297 19.078125 L 33.158203 19.574219 C 31.508203 19.574219 30.435547 20.398437 30.435547 20.398438 L 30.435547 20.646484 C 30.435547 20.662484 30.450797 20.678359 30.466797 20.693359 C 30.513797 20.711359 30.565563 20.728516 30.601562 20.728516 L 30.564453 20.761719 C 30.624453 20.791719 30.683594 20.810547 30.683594 20.810547 C 31.095594 20.975547 32.498125 21.55375 32.828125 21.71875 C 32.826125 21.71875 32.249891 21.800859 31.837891 22.130859 L 30.021484 21.552734 L 29.857422 21.388672 L 30.5625 20.761719 C 30.5235 20.742719 30.491797 20.718359 30.466797 20.693359 C 30.405797 20.670359 30.353516 20.646484 30.353516 20.646484 C 30.353516 20.564484 30.352547 20.316375 30.435547 20.234375 C 30.600547 20.069375 31.177813 19.82225 31.507812 19.65625 C 31.837812 19.57425 32.415047 19.490203 32.498047 19.408203 C 32.581047 19.325203 32.744141 18.996094 32.744141 18.996094 z M 22.513672 20.150391 L 21.771484 21.306641 L 21.607422 21.388672 L 20.947266 20.892578 C 20.947266 20.892578 21.606672 20.067391 22.513672 20.150391 z M 22.927734 20.314453 C 22.927734 20.314453 23.669922 20.726766 23.669922 21.634766 L 22.349609 21.552734 L 22.267578 21.470703 L 22.927734 20.314453 z M 20.617188 21.388672 L 21.193359 21.964844 L 21.193359 22.130859 L 20.451172 23.201172 C 20.452172 23.202172 20.040188 22.460672 20.617188 21.388672 z M 29.525391 21.636719 L 29.691406 21.800781 L 30.267578 22.048828 L 29.195312 23.203125 L 28.123047 22.873047 L 29.525391 21.636719 z M 35.492188 21.806641 C 38.03774 21.675801 41.601359 24.418984 41.818359 27.162109 C 40.580359 25.924109 37.364687 27.162703 35.054688 25.595703 C 35.466687 24.853703 35.630828 24.027219 35.548828 23.449219 C 35.465828 22.707219 35.219609 22.542891 34.724609 22.212891 C 34.641609 22.130891 34.558563 22.131828 34.476562 22.048828 C 34.785938 21.904453 35.128537 21.825332 35.492188 21.806641 z M 23.587891 22.212891 C 23.586891 22.213891 23.422656 23.119266 22.597656 23.697266 L 22.185547 22.378906 L 22.267578 22.294922 L 23.587891 22.212891 z M 30.929688 22.296875 L 31.423828 22.460938 C 31.423828 22.459938 30.764609 23.203281 30.599609 23.863281 L 29.773438 23.615234 L 30.929688 22.296875 z M 21.441406 22.625 L 21.607422 22.625 L 22.101562 23.861328 C 22.101562 23.862328 21.195188 24.110234 20.617188 23.615234 L 21.441406 22.625 z M 34.310547 23.203125 L 34.310547 23.285156 L 33.650391 24.111328 L 33.568359 24.193359 L 33.404297 23.945312 C 33.404297 23.944313 33.980547 23.203125 34.310547 23.203125 z M 34.724609 23.285156 C 34.724609 23.285156 35.135703 23.698391 34.970703 24.275391 L 34.064453 24.275391 L 34.064453 24.191406 L 34.724609 23.285156 z M 33.15625 24.357422 C 33.23925 24.522422 33.320281 24.6875 33.238281 24.6875 L 33.238281 24.853516 L 32.826172 25.759766 C 32.825172 25.759766 32.74425 25.181422 33.15625 24.357422 z M 34.972656 24.769531 C 34.971656 24.770531 34.888625 25.099688 34.640625 25.429688 C 34.393625 25.759687 34.146484 26.007812 34.146484 26.007812 L 33.898438 24.935547 L 33.982422 24.851562 L 34.972656 24.769531 z M 33.402344 25.265625 L 33.484375 25.265625 L 33.814453 26.255859 C 33.815453 26.255859 33.403234 26.420859 32.990234 26.255859 L 32.908203 26.171875 L 33.402344 25.265625 z M 11.955078 29.554688 C 20.947078 29.884687 30.434969 34.751016 32.167969 39.041016 C 32.276686 39.339528 32.35471 39.694019 32.375 40.064453 C 30.555281 41.461005 28.481 42.752147 26.099609 43.876953 C 18.465191 40.269916 13.927256 34.932381 11.220703 29.632812 C 11.457602 29.583335 11.707497 29.554687 11.955078 29.554688 z"/></svg>