<?xml version="1.0" encoding="utf-8"?>
<!-- Svg Vector Icons : http://www.onlinewebfonts.com/icon -->
<!DOCTYPE svg PUBLIC "-//W3C//DTD SVG 1.1//EN" "http://www.w3.org/Graphics/SVG/1.1/DTD/svg11.dtd">
<svg version="1.1" xmlns="http://www.w3.org/2000/svg" xmlns:xlink="http://www.w3.org/1999/xlink" x="0px" y="0px" viewBox="0 0 1000 1000" enable-background="new 0 0 1000 1000" fill="lightgrey" xml:space="preserve">
<metadata> Svg Vector Icons : http://www.onlinewebfonts.com/icon </metadata>
<g><path d="M500,990c-66.1,0-130.3-13-190.7-38.5c-58.4-24.7-110.8-60-155.7-105c-45-45-80.3-97.4-105-155.7C23,630.3,10,566.1,10,500c0-66.1,13-130.3,38.5-190.7c24.7-58.3,60-110.7,105-155.7c45-45,97.4-80.3,155.7-105C369.7,23,433.9,10,500,10c66.1,0,130.3,13,190.7,38.5c58.4,24.7,110.8,60,155.7,105c45,45,80.3,97.4,105,155.7C977,369.7,990,433.9,990,500c0,66.1-13,130.3-38.5,190.7c-24.7,58.4-60,110.7-105,155.7c-45,45-97.4,80.3-155.7,105C630.3,977,566.1,990,500,990z M500,38.1C245.3,38.1,38.1,245.3,38.1,500c0,254.7,207.2,461.9,461.9,461.9c254.7,0,461.9-207.2,461.9-461.9C961.9,245.3,754.7,38.1,500,38.1z"/><path d="M457.4,707.2H534v79.9h-76.5V707.2L457.4,707.2z M374.8,265.8c31.3-33.7,74.2-50.5,128.7-50.5c50.5,0,90.9,14.4,121.3,43.3c30.3,28.8,45.5,65.6,45.5,110.5c0,27.2-5.5,49.2-16.7,66.1c-11.2,16.9-33.6,41.8-67.4,74.6c-24.6,23.8-40.6,44-47.9,60.5c-7.3,16.6-11,40.9-11,73.2H459c0-36.6,4.4-66.2,13.1-88.6c8.7-22.4,27.8-48.1,57.3-77.1l30.8-30.4c9.2-8.7,16.7-17.8,22.3-27.3c10.3-16.7,15.4-34,15.4-51.9c0-25.1-7.5-46.9-22.5-65.3c-15-18.5-39.8-27.7-74.4-27.7c-42.8,0-72.4,15.9-88.8,47.7c-9.2,17.7-14.5,43.2-15.7,76.5h-68.4C327.9,344,343.6,299.5,374.8,265.8C374.8,265.8,343.6,299.5,374.8,265.8L374.8,265.8z"/><path d="M457.4,707.2H534v79.9h-76.5V707.2L457.4,707.2z M374.8,265.8c31.3-33.7,74.2-50.5,128.7-50.5c50.5,0,90.9,14.4,121.3,43.3c30.3,28.8,45.5,65.6,45.5,110.5c0,27.2-5.5,49.2-16.7,66.1c-11.2,16.9-33.6,41.8-67.4,74.6c-24.6,23.8-40.6,44-47.9,60.5c-7.3,16.6-11,40.9-11,73.2H459c0-36.6,4.4-66.2,13.1-88.6c8.7-22.4,27.8-48.1,57.3-77.1l30.8-30.4c9.2-8.7,16.7-17.8,22.3-27.3c10.3-16.7,15.4-34,15.4-51.9c0-25.1-7.5-46.9-22.5-65.3c-15-18.5-39.8-27.7-74.4-27.7c-42.8,0-72.4,15.9-88.8,47.7c-9.2,17.7-14.5,43.2-15.7,76.5h-68.4C327.9,344,343.6,299.5,374.8,265.8C374.8,265.8,343.6,299.5,374.8,265.8L374.8,265.8z"/></g>
</svg>