<?xml version="1.0" standalone="no"?>
<!DOCTYPE svg PUBLIC "-//W3C//DTD SVG 20010904//EN"
 "http://www.w3.org/TR/2001/REC-SVG-20010904/DTD/svg10.dtd">
<svg version="1.0" xmlns="http://www.w3.org/2000/svg"
 width="512.000000pt" height="512.000000pt" viewBox="0 0 512.000000 512.000000"
 preserveAspectRatio="xMidYMid meet">

<g transform="translate(0.000000,512.000000) scale(0.100000,-0.100000)"
fill="dimgrey" stroke="none">
<path d="M2390 5114 c-364 -33 -671 -119 -982 -275 -266 -133 -481 -291 -693
-510 -363 -374 -597 -835 -679 -1339 -86 -535 -9 -1071 224 -1548 135 -276
266 -458 495 -687 228 -228 412 -361 688 -496 866 -423 1889 -321 2666 264
115 87 307 271 405 387 476 565 682 1290 576 2022 -11 76 -26 155 -33 175 -21
66 -99 80 -134 26 -14 -22 -15 -34 -4 -101 43 -267 55 -538 31 -742 -46 -405
-193 -785 -435 -1124 -395 -556 -1017 -922 -1690 -996 -145 -16 -430 -13 -570
5 -327 43 -635 149 -912 313 -573 339 -983 901 -1128 1542 -75 332 -75 728 0
1060 103 458 332 862 677 1196 301 290 650 490 1040 593 253 68 414 86 701 78
200 -5 285 -15 452 -51 429 -92 850 -322 1167 -638 107 -106 235 -261 220
-266 -6 -2 -49 4 -97 12 -76 13 -91 14 -115 1 -44 -23 -54 -75 -22 -114 14
-18 47 -27 182 -51 271 -49 289 -50 310 -11 5 11 24 115 41 231 l32 212 -20
26 c-31 42 -101 42 -124 1 -6 -12 -17 -64 -25 -117 -8 -53 -16 -97 -18 -99 -2
-2 -30 29 -62 69 -90 113 -268 292 -379 381 -366 296 -801 486 -1261 552 -106
15 -433 27 -524 19z"/>
<path d="M2385 4639 c-635 -59 -1209 -396 -1556 -912 -33 -49 -59 -99 -59
-113 0 -36 17 -63 47 -75 45 -17 75 5 143 104 302 439 720 713 1250 819 101
20 144 23 350 22 250 0 310 -7 509 -61 717 -192 1257 -786 1397 -1534 25 -133
30 -442 10 -586 -62 -432 -247 -803 -551 -1108 -303 -302 -676 -488 -1105
-551 -172 -25 -480 -15 -648 20 -381 81 -699 253 -972 526 -532 532 -712 1307
-465 2006 25 71 45 138 45 149 0 56 -88 85 -127 43 -29 -32 -78 -167 -118
-322 -180 -706 30 -1459 555 -1986 433 -435 1050 -658 1656 -599 959 93 1713
796 1876 1749 17 99 21 165 21 315 0 327 -50 568 -175 852 -246 563 -726 989
-1311 1164 -225 67 -545 99 -772 78z"/>
<path d="M1735 4165 c-53 -19 -111 -82 -125 -136 -7 -25 -10 -85 -8 -139 3
-82 7 -102 31 -142 30 -51 78 -86 130 -95 l34 -5 6 -207 c7 -264 23 -333 114
-473 57 -88 115 -139 321 -283 94 -66 171 -122 172 -125 0 -3 -78 -59 -172
-125 -207 -144 -298 -231 -352 -335 -65 -123 -77 -186 -83 -421 l-6 -207 -35
-5 c-49 -8 -104 -50 -132 -100 -20 -34 -25 -60 -28 -137 -3 -56 1 -114 8 -140
15 -57 80 -124 135 -139 56 -15 1574 -15 1630 0 55 15 120 82 135 139 7 26 11
84 8 140 -3 77 -8 103 -28 137 -27 48 -81 89 -132 98 l-35 7 -6 206 c-6 225
-15 279 -68 392 -40 86 -96 158 -170 220 -66 55 -101 63 -140 31 -16 -13 -23
-29 -23 -53 0 -31 10 -45 81 -114 87 -85 131 -162 152 -262 6 -29 11 -136 11
-237 l0 -185 -600 0 -600 0 0 193 c0 260 23 341 128 458 33 37 374 291 460
343 8 5 40 -11 87 -43 81 -56 122 -64 155 -31 12 12 20 33 20 55 0 30 -7 40
-49 72 -28 21 -50 40 -50 43 0 3 77 59 171 125 207 144 298 231 352 335 64
122 77 186 83 421 l6 207 35 6 c49 7 104 49 132 99 20 34 25 60 28 137 3 56
-1 114 -8 140 -16 58 -80 124 -137 139 -29 8 -219 11 -633 9 l-592 -3 -19 -24
c-36 -44 -19 -100 35 -121 18 -6 228 -10 600 -10 431 0 575 -3 584 -12 8 -8
12 -45 12 -100 0 -76 -2 -89 -19 -98 -13 -7 -275 -10 -781 -10 -506 0 -768 3
-781 10 -17 9 -19 22 -19 98 0 55 4 92 12 100 7 7 31 12 54 12 53 0 102 17
114 40 17 31 11 76 -11 96 -27 24 -138 30 -194 9z m1425 -708 c0 -157 -3 -205
-19 -259 -22 -82 -70 -163 -131 -222 -56 -54 -429 -320 -450 -320 -25 0 -424
289 -471 342 -107 118 -129 198 -129 459 l0 193 600 0 600 0 0 -193z m181
-2147 c17 -9 19 -22 19 -98 0 -55 -4 -92 -12 -100 -17 -17 -1559 -17 -1576 0
-8 8 -12 45 -12 100 0 72 3 89 18 97 24 14 1536 15 1563 1z"/>
</g>
</svg>
